# xmcd
#
# Track frame offsets:
#	150
#	15367
#	36584
#	49085
#	67841
#	80561
#	100518
#	113436
#	129670
#	142617
#	151766
#	163710
#	185613
#	199353
#	210260
#	222746
#	245345
#	262285
#	278678
#	291332
#
# Disc length: 4070 seconds
#
# Revision: 1
# Processed by: cddbd v1.5.2PL0 Copyright (c) Steve Scherf et al.
# Submitted via: audiograbber 1.82.02
#
DISCID=1e0fe414
DTITLE=Various Artist - The Balladeers Vol 2
DYEAR=2001
DGENRE=Country
TTITLE0=Dave McCallum - Come And Hav A Beer Mate
TTITLE1=Laura Downing - Harold Clifford Young
TTITLE2=Rick Hopkins - Old Time Shearer
TTITLE3=Lynne Bennett - Track Mates
TTITLE4=Terry Gordon - Inside A Womens Handbag
TTITLE5=Les Lawson - The Country In A Song
TTITLE6=Margaret Rackley - Little Peice Of Heaven
TTITLE7=Neville Andrerson - Old Images
TTITLE8=Gordon Larkin - Droving Down The Canning In '59
TTITLE9=Barry Offer - Misted Memories
TTITLE10=Leanda O'Brien - Little Cragie Church
TTITLE11=Lorri Spry - Oodavacrookute B&S Ball
TTITLE12=Pat Pincott - Old Homes By The Roadside
TTITLE13=Brian Bitter - Bush Barbecue
TTITLE14=Keith Jamieson - Old Time Ringer
TTITLE15=Dave McCallum - The Black Swan
TTITLE16=Steve Brodie - This Blue Cattle Dog Of Mine
TTITLE17=Ron Peters - This Old Maton Guitar
TTITLE18=Noel Smith - City Brother
TTITLE19=Dusty Page - The Black Mare In The Furrow
EXTD=
EXTT0=
EXTT1=
EXTT2=
EXTT3=
EXTT4=
EXTT5=
EXTT6=
EXTT7=
EXTT8=
EXTT9=
EXTT10=
EXTT11=
EXTT12=
EXTT13=
EXTT14=
EXTT15=
EXTT16=
EXTT17=
EXTT18=
EXTT19=
PLAYORDER=
